<svg width="25" height="18" viewBox="0 0 25 18" fill="none" xmlns="http://www.w3.org/2000/svg">
<path d="M24.849 8.36632C22.4952 3.77388 17.8355 0.666672 12.5 0.666672C7.1645 0.666672 2.50348 3.77605 0.151048 8.36676C0.0517611 8.56316 3.05176e-05 8.78015 3.05176e-05 9.00022C3.05176e-05 9.22029 0.0517611 9.43728 0.151048 9.63369C2.50478 14.2261 7.1645 17.3333 12.5 17.3333C17.8355 17.3333 22.4965 14.224 24.849 9.63325C24.9483 9.43685 25 9.21986 25 8.99979C25 8.77972 24.9483 8.56273 24.849 8.36632ZM12.5 15.25C11.2639 15.25 10.0555 14.8834 9.02769 14.1967C7.99989 13.5099 7.19881 12.5338 6.72576 11.3918C6.25271 10.2497 6.12894 8.99307 6.3701 7.78069C6.61126 6.56831 7.20651 5.45467 8.08059 4.58059C8.95467 3.70651 10.0683 3.11125 11.2807 2.8701C12.4931 2.62894 13.7497 2.75271 14.8918 3.22576C16.0338 3.69881 17.0099 4.49988 17.6967 5.52769C18.3834 6.5555 18.75 7.76387 18.75 9C18.7504 9.82088 18.589 10.6338 18.2751 11.3922C17.9611 12.1507 17.5008 12.8399 16.9203 13.4203C16.3399 14.0008 15.6507 14.4611 14.8923 14.7751C14.1338 15.089 13.3209 15.2504 12.5 15.25ZM12.5 4.83334C12.1281 4.83854 11.7586 4.89387 11.4015 4.99783C11.6958 5.39787 11.8371 5.89015 11.7996 6.3854C11.7622 6.88065 11.5485 7.34607 11.1973 7.69727C10.8461 8.04847 10.3806 8.26218 9.8854 8.29964C9.39015 8.33711 8.89787 8.19585 8.49784 7.90148C8.27004 8.74071 8.31116 9.63025 8.61541 10.4449C8.91965 11.2595 9.4717 11.9582 10.1938 12.4427C10.916 12.9271 11.7719 13.1729 12.6411 13.1455C13.5102 13.118 14.3489 12.8187 15.039 12.2896C15.7291 11.7606 16.236 11.0284 16.4882 10.1962C16.7404 9.36396 16.7253 8.47361 16.445 7.65043C16.1647 6.82725 15.6333 6.11269 14.9256 5.60734C14.2179 5.10199 13.3696 4.83129 12.5 4.83334Z" fill="#E5A0E4"/>
</svg>
